<svg xmlns="http://www.w3.org/2000/svg" width="880" height="188" viewBox="0 0 880 188" role="img" aria-label="LANGUAGES">
  <rect x="0.5" y="0.5" width="879" height="187" rx="16" fill="#090a0c" stroke="#1e2126"/>
  <text x="32" y="42" font-family="ui-monospace, 'SF Mono', 'Geist Mono', Menlo, Consolas, monospace" font-size="12" letter-spacing="1.4" fill="#767c86">LANGUAGES</text>
  <text x="848" y="42" text-anchor="end" font-family="ui-monospace, 'SF Mono', 'Geist Mono', Menlo, Consolas, monospace" font-size="11" fill="#767c86">BY BYTES · 48 REPOS · 31 PRIVATE</text>
  <rect x="32.0" y="72" width="472.9" height="12" rx="3" fill="#3178c6"/>
  <rect x="506.9" y="72" width="167.8" height="12" rx="3" fill="#f1e05a"/>
  <rect x="676.6" y="72" width="94.3" height="12" rx="3" fill="#e34c26"/>
  <rect x="772.9" y="72" width="20.6" height="12" rx="3" fill="#663399"/>
  <rect x="795.5" y="72" width="19.3" height="12" rx="3" fill="#3572A5"/>
  <rect x="816.8" y="72" width="8.9" height="12" rx="3" fill="#336790"/>
  <rect x="827.6" y="72" width="18.4" height="12" rx="3" fill="#2a2e35"/>
  <circle cx="37" cy="120" r="5" fill="#3178c6"/>
  <text x="50" y="124" font-family="Inter, 'Segoe UI', Helvetica, Arial, sans-serif" font-size="13" fill="#f5f7fa">TypeScript</text>
  <text x="132" y="124" font-family="ui-monospace, 'SF Mono', 'Geist Mono', Menlo, Consolas, monospace" font-size="12" fill="#767c86">58.2%</text>
  <circle cx="241" cy="120" r="5" fill="#f1e05a"/>
  <text x="254" y="124" font-family="Inter, 'Segoe UI', Helvetica, Arial, sans-serif" font-size="13" fill="#f5f7fa">JavaScript</text>
  <text x="336" y="124" font-family="ui-monospace, 'SF Mono', 'Geist Mono', Menlo, Consolas, monospace" font-size="12" fill="#767c86">20.8%</text>
  <circle cx="445" cy="120" r="5" fill="#e34c26"/>
  <text x="458" y="124" font-family="Inter, 'Segoe UI', Helvetica, Arial, sans-serif" font-size="13" fill="#f5f7fa">HTML</text>
  <text x="495.6" y="124" font-family="ui-monospace, 'SF Mono', 'Geist Mono', Menlo, Consolas, monospace" font-size="12" fill="#767c86">11.8%</text>
  <circle cx="649" cy="120" r="5" fill="#663399"/>
  <text x="662" y="124" font-family="Inter, 'Segoe UI', Helvetica, Arial, sans-serif" font-size="13" fill="#f5f7fa">CSS</text>
  <text x="692.2" y="124" font-family="ui-monospace, 'SF Mono', 'Geist Mono', Menlo, Consolas, monospace" font-size="12" fill="#767c86">2.8%</text>
  <circle cx="37" cy="146" r="5" fill="#3572A5"/>
  <text x="50" y="150" font-family="Inter, 'Segoe UI', Helvetica, Arial, sans-serif" font-size="13" fill="#f5f7fa">Python</text>
  <text x="102.4" y="150" font-family="ui-monospace, 'SF Mono', 'Geist Mono', Menlo, Consolas, monospace" font-size="12" fill="#767c86">2.6%</text>
  <circle cx="241" cy="146" r="5" fill="#336790"/>
  <text x="254" y="150" font-family="Inter, 'Segoe UI', Helvetica, Arial, sans-serif" font-size="13" fill="#f5f7fa">PLpgSQL</text>
  <text x="313.8" y="150" font-family="ui-monospace, 'SF Mono', 'Geist Mono', Menlo, Consolas, monospace" font-size="12" fill="#767c86">1.3%</text>
  <circle cx="445" cy="146" r="5" fill="#2a2e35"/>
  <text x="458" y="150" font-family="Inter, 'Segoe UI', Helvetica, Arial, sans-serif" font-size="13" fill="#f5f7fa">Other</text>
  <text x="503" y="150" font-family="ui-monospace, 'SF Mono', 'Geist Mono', Menlo, Consolas, monospace" font-size="12" fill="#767c86">2.5%</text>
</svg>
